<?xml version="1.0" encoding="UTF-8"?>
<svg id="Ebene_1" xmlns="http://www.w3.org/2000/svg" version="1.1" viewBox="0 0 435 240">
  <!-- Generator: Adobe Illustrator 29.3.0, SVG Export Plug-In . SVG Version: 2.1.0 Build 146)  -->
  <defs>
    <style>
      .st0, .st1 {
        fill: #828282;
      }

      .st2 {
        fill: #fc0;
      }

      .st2, .st1, .st3 {
        fill-rule: evenodd;
      }

      .st4, .st3 {
        fill: #d40d2f;
      }
    </style>
  </defs>
  <path class="st2" d="M9.6,54.6c0-7.7,6.1-13.6,13.6-13.6s13.6,6.1,13.6,13.6-6.1,13.6-13.6,13.6-13.6-6.1-13.6-13.6h0ZM12.6,192.2v-109.3c13.1-.6,27.5.2,38.8,1.4v13.3c-5.8.4-12.7,1.2-17.5,2v94.6c0,15.9,4,20.9,15.7,20.9s9-.8,12.9-2.2l1.4,18.7c-4.4,1-9.8,1.6-14.3,1.6-27.5,0-37-14.3-37-41h0Z"/>
  <path class="st3" d="M216.9,145v-13.3c-5.2-.4-11.9-1.2-16.7-2v-51.4c0-20.5-8.4-33.9-39-33.9s-24.7,2.2-34.5,5.4v28.3h13.5c.8-5.2,1.8-10.2,2.2-14.9,5-1.4,10.8-2.2,16.5-2.2,15.3,0,19.9,6.6,19.9,19.1v7c-36,.2-58.8,12.9-58.8,35.7s10.8,25.5,27.9,25.5,28.3-8.8,33.1-20.7l.2.2c-.8,5.4-1,12-1,18.5,11.6.6,26.3-.2,36.8-1.4h0ZM178.7,103.4c0,14.3-9.8,28.3-24.5,28.3s-13.7-4.8-13.7-12.5,9-17.9,38.2-17.9v2h0Z"/>
  <path class="st4" d="M301,115c0-32.1-49.2-21.7-49.2-42s6-13.1,18.3-13.1,7.2.4,10.2,1c.4,4.8,1.2,9.8,2.4,14.5h13.3s0-27.9,0-27.9c-8.2-1.8-17.1-3-24.3-3-27.1,0-41.4,13.5-41.4,30.9,0,34.1,49.2,22.7,49.2,42.8s-8.2,13.9-20.3,13.9-7.8-.4-11-1c-.4-4.8-1.2-10-2.2-14.7h-13.5v29.1c7.4,1.8,17.1,2.8,24.7,2.8,27.1,0,43.8-14.5,43.8-33.3h0Z"/>
  <path class="st3" d="M76.9,18.2c0-7.7,6.1-13.6,13.6-13.6s13.6,6.1,13.6,13.6-6.1,13.6-13.6,13.6-13.6-6.1-13.6-13.6h0ZM101.2,155.8V46.6c-13.1-.6-27.5.2-38.8,1.4v13.3c5.8.4,12.7,1.2,17.5,2v94.6c0,15.9-4,20.9-15.7,20.9s-9-.8-12.9-2.2l-1.4,18.7c4.4,1,9.8,1.6,14.3,1.6,27.5,0,37-14.3,37-41h0Z"/>
  <path class="st0" d="M134.3,173.6h-2.4l-3.1,16.1c-.5,2.8-1.8,3.6-3.6,3.6s-1.5-.2-2-.4l-.4,2.2c.6.1,1.4.3,2.3.3,3.7,0,5.4-2,6.1-5.6l3.1-16.2h0Z"/>
  <path class="st1" d="M150.6,184.7c0-3.4-1.8-5.7-5.8-5.7s-9.1,4.6-9.1,10.8,1.9,5.6,5.7,5.6,9.2-4.2,9.2-10.8h0ZM148.1,184.9c0,5.1-3,8.5-6.2,8.5s-3.6-1.4-3.6-4c0-4.3,2.5-8.4,6.3-8.4s3.6,1.4,3.6,3.9h0Z"/>
  <path class="st0" d="M162.9,179.2c-.8-.2-1.6-.3-2.7-.3-4,0-6.1,2.1-6.1,4.7,0,3.9,5.1,4.3,5.1,7s-1.6,2.8-3.8,2.8-1.8-.2-2.7-.4l-.4,2.2c.8.1,1.6.2,2.7.2,4.4,0,6.7-2.5,6.7-5.1s-5.1-4.2-5.1-6.9,1.2-2.6,3.4-2.6,1.7,0,2.5.4l.4-2h0Z"/>
  <path class="st1" d="M178.3,182.5c0-1.9-1.3-3.5-4.5-3.5-5.4,0-8.6,5.4-8.6,11.4s1.8,5.1,5.2,5.1,3.8-.4,5.3-1v-2c-1.3.6-2.9,1-4.4,1-2.7,0-3.6-.7-3.6-3.4s0-1.6.2-2.1c7-.3,10.4-2.2,10.4-5.5h0ZM175.8,182.8c0,2-2.3,3.1-7.6,3.3.8-2.9,2.6-5.2,5.3-5.2s2.3.7,2.3,2h0Z"/>
  <path class="st0" d="M194,171.9c-.9-.2-1.8-.3-2.7-.3-4,0-6.3,2.1-7.1,6.5l-.2,1.1h-3.4l-.4,1.9h3.4l-2.9,15c-.8,3.9-2.1,5.2-4.6,5.2s-1.6,0-2.4-.4l-.6,2.1c.9.2,1.8.3,2.8.3,3.8,0,6.2-2.1,7.2-7.3l2.8-14.9h4.6l.4-1.9h-4.6l.2-1.1c.6-3.2,2-4.6,4.5-4.6s1.6,0,2.4.3l.6-2h0Z"/>
  <polygon class="st0" points="197.4 188.2 197.4 186.2 190 186.2 190 188.2 197.4 188.2 197.4 188.2"/>
  <path class="st1" d="M216.2,195.2l-3.8-21.6h-2.6l-12,21.6h2.6l2.9-5.3h9.4l.8,5.3h2.6ZM212.5,187.9h-8.1l4.7-8.5c.6-1.1,1.1-2.1,1.5-3.1h0c0,1,.2,2.1.4,3.1l1.5,8.5h0Z"/>
  <path class="st0" d="M234,184.4c.6-3.4-.4-5.4-3.3-5.4s-6.1,3.6-7.6,7.1h0c1.2-3.8,1.7-5.7,1.9-6.8h-2.4l-3,15.9h2.3l.6-3.4c.7-4,4.2-10.8,7.5-10.8s2.1,1.2,1.6,3.9l-2,10.2h2.4l2-10.8h0Z"/>
  <path class="st0" d="M252,184.4c.6-3.4-.4-5.4-3.3-5.4s-6.1,3.6-7.6,7.1h0c1.2-3.8,1.7-5.7,1.9-6.8h-2.4l-3,15.9h2.3l.6-3.4c.7-4,4.2-10.8,7.5-10.8s2.1,1.2,1.6,3.9l-2,10.2h2.4l2-10.8h0Z"/>
  <path class="st1" d="M268.7,182.5c0-1.9-1.3-3.5-4.5-3.5-5.4,0-8.6,5.4-8.6,11.4s1.8,5.1,5.2,5.1,3.8-.4,5.3-1v-2c-1.3.6-2.9,1-4.4,1-2.7,0-3.6-.7-3.6-3.4s0-1.6.2-2.1c7-.3,10.4-2.2,10.4-5.5h0ZM266.2,182.8c0,2-2.3,3.1-7.6,3.3.8-2.9,2.6-5.2,5.3-5.2s2.3.7,2.3,2h0Z"/>
  <path class="st1" d="M285.3,179.5c-1.4-.3-3-.4-4.7-.4-6.9,0-9.9,5.9-9.9,11.6s1.2,4.8,3.5,4.8c4.1,0,6.6-4.9,7.6-7.2h0c-1.2,3.8-1.5,5.1-2,7.8-.8,3.9-2.8,5.2-6.2,5.2s-3-.3-4.2-.9l-.5,2.4c1.1.4,2.4.6,4.2.6,6,0,8.3-3,9-6.6l3.3-17.3h0ZM282.6,181.3l-.3,1.4c-.8,4-4.2,10.8-7.5,10.8s-1.8-.9-1.8-3.2c0-4.2,2-9.3,7.1-9.3s1.8.2,2.5.3h0Z"/>
  <path class="st1" d="M302.4,179.5c-1.4-.3-3-.4-4.7-.4-6.9,0-9.9,5.9-9.9,11.6s1.2,4.8,3.5,4.8c4.1,0,6.6-4.9,7.7-7.4h0c-1,3.3-1.7,5.6-2,7h2.4c.7-3.6,1.2-6.2,3-15.7h0ZM299.7,181.3l-.3,1.4c-.8,4-4.2,10.8-7.5,10.8s-1.8-.9-1.8-3.2c0-4.2,2-9.3,7.1-9.3s1.8.2,2.5.3h0Z"/>
  <path class="st0" d="M315.7,179c-3.2-.5-5.2,2.6-7,6.6h0c1-3.1,1.5-4.9,1.8-6.3h-2.3l-3,15.9h2.3l.7-3.6c.7-4,4-11,7.2-10.2l.4-2.3h0Z"/>
  <path class="st0" d="M330.6,184.4c.6-3.4-.4-5.4-3.3-5.4s-6.1,3.6-7.6,7.1h0c1.2-3.8,1.7-5.7,1.9-6.8h-2.4l-3,15.9h2.3l.6-3.4c.7-4,4.2-10.8,7.5-10.8s2.1,1.2,1.6,3.9l-2,10.2h2.4l2-10.8h0Z"/>
  <polygon class="st0" points="341.9 188.2 341.9 186.2 334.5 186.2 334.5 188.2 341.9 188.2 341.9 188.2"/>
  <path class="st0" d="M356.8,173.6c-1.2-.3-2.1-.3-3.1-.3-5,0-7.7,3-7.7,6.4,0,5.2,6.7,5.2,6.7,9.2s-2,4.4-5.6,4.4-2.4-.3-3.2-.7l-.5,2.4c1,.4,2.4.4,3.4.4,4.9,0,8.4-3,8.4-6.9s-6.8-5.2-6.8-9.4,1.6-3.8,5-3.8,1.9.1,3,.5l.4-2.2h0Z"/>
  <path class="st0" d="M370.8,179.6c-1-.3-2.1-.5-3.5-.5-5.7,0-9.1,5.2-9.1,11.2s1.3,5.2,5.4,5.2,3.2-.4,4.4-.8v-2.1c-1,.5-2.4.9-3.7.9-3,0-3.5-1.9-3.5-3.6,0-3.9,2-8.7,6.3-8.7s2.2.3,3.1.7l.5-2.1h0Z"/>
  <path class="st0" d="M386.2,184.4c.6-3.4-.4-5.4-3.3-5.4s-6.1,3.6-7.6,7.1h0c1.2-3.8,1.6-5.3,1.8-6.5l1.5-7.7h-2.3l-4.4,23.4h2.3l.6-3.4c.7-4,4.2-10.8,7.5-10.8s2.1,1.2,1.6,3.9l-2,10.2h2.4l2-10.8h0Z"/>
  <path class="st0" d="M405.3,179.3h-2.4l-.6,3.4c-.7,4-4.2,10.8-7.4,10.8s-2.1-1.2-1.6-3.9l2-10.2h-2.3l-2.1,10.8c-.6,3.4.4,5.4,3.3,5.4s6.1-3.6,7.6-7.1h0c-1.2,3.8-1.7,5.7-1.9,6.8h2.4l3-15.9h0Z"/>
  <polygon class="st0" points="414.7 171.8 412.3 171.8 407.9 195.2 410.2 195.2 414.7 171.8 414.7 171.8"/>
  <path class="st1" d="M428.9,182.5c0-1.9-1.3-3.5-4.5-3.5-5.4,0-8.6,5.4-8.6,11.4s1.8,5.1,5.2,5.1,3.8-.4,5.3-1v-2c-1.3.6-2.9,1-4.4,1-2.7,0-3.6-.7-3.6-3.4s0-1.6.2-2.1c7-.3,10.4-2.2,10.4-5.5h0ZM426.5,182.8c0,2-2.3,3.1-7.6,3.3.8-2.9,2.6-5.2,5.3-5.2s2.3.7,2.3,2h0Z"/>
</svg>