<?xml version="1.0" encoding="UTF-8"?><svg id="Ebene_2" xmlns="http://www.w3.org/2000/svg" viewBox="0 0 419.32 228.59"><defs><style>.cls-1,.cls-2{fill:#828282;}.cls-3{fill:#fc0;}.cls-3,.cls-2,.cls-4{fill-rule:evenodd;}.cls-5,.cls-4{fill:#d40d2f;}</style></defs><g id="Ebene_1-2"><path class="cls-3" d="M0,50.02c0-7.74,6.13-13.64,13.64-13.64s13.64,6.11,13.64,13.64-6.13,13.64-13.64,13.64S0,57.56,0,50.02h0ZM3.01,187.62v-109.25c13.05-.6,27.51.2,38.76,1.4v13.26c-5.82.4-12.65,1.2-17.47,2.01v94.6c0,15.87,4.02,20.88,15.67,20.88,4.42,0,9.04-.8,12.85-2.21l1.41,18.68c-4.42,1.01-9.84,1.61-14.26,1.61-27.52,0-36.96-14.26-36.96-40.97h0Z"/><path class="cls-4" d="M207.29,140.4v-13.25c-5.22-.4-11.85-1.2-16.67-2.01v-51.42c0-20.48-8.43-33.94-38.96-33.94-12.85,0-24.7,2.21-34.54,5.42v28.32h13.46c.8-5.22,1.81-10.24,2.21-14.86,5.02-1.41,10.85-2.21,16.47-2.21,15.26,0,19.88,6.63,19.88,19.08v7.03c-35.95.2-58.85,12.85-58.85,35.75,0,15.87,10.85,25.51,27.92,25.51,15.87,0,28.32-8.84,33.14-20.69l.2.2c-.81,5.42-1.01,12.05-1.01,18.48,11.65.6,26.31-.2,36.75-1.41h0ZM169.13,98.83c0,14.26-9.84,28.32-24.5,28.32-8.44,0-13.66-4.82-13.66-12.45,0-9.64,9.04-17.88,38.16-17.88v2.01h0Z"/><path class="cls-5" d="M291.44,110.48c0-32.13-49.2-21.69-49.2-41.98,0-8.03,6.02-13.05,18.28-13.05,3.41,0,7.23.4,10.24,1,.4,4.82,1.2,9.84,2.41,14.46h13.31s0-27.92,0-27.92c-8.23-1.81-17.12-3.01-24.35-3.01-27.11,0-41.37,13.46-41.37,30.93,0,34.14,49.2,22.69,49.2,42.78,0,8.64-8.23,13.86-20.28,13.86-3.62,0-7.83-.4-11.05-1.01-.4-4.82-1.2-10.04-2.21-14.66h-13.46v29.12c7.43,1.81,17.07,2.81,24.7,2.81,27.12,0,43.78-14.46,43.78-33.34h0Z"/><path class="cls-4" d="M67.3,13.64c0-7.74,6.13-13.64,13.64-13.64s13.64,6.11,13.64,13.64-6.13,13.64-13.64,13.64-13.64-6.11-13.64-13.64h0ZM91.59,151.25V42c-13.06-.6-27.51.2-38.76,1.4v13.26c5.82.4,12.65,1.2,17.47,2.01v94.59c0,15.86-4.02,20.88-15.67,20.88-4.42,0-9.04-.8-12.85-2.21l-1.41,18.68c4.42,1.01,9.84,1.61,14.26,1.61,27.52,0,36.96-14.26,36.96-40.97h0Z"/><path class="cls-1" d="M124.74,169.01h-2.4l-3.07,16.1c-.51,2.82-1.79,3.65-3.55,3.65-.74,0-1.5-.16-2.05-.38l-.45,2.21c.61.13,1.41.26,2.3.26,3.71,0,5.44-2.02,6.11-5.6l3.1-16.22h0Z"/><path class="cls-2" d="M141.02,180.15c0-3.36-1.76-5.73-5.79-5.73-5.22,0-9.09,4.61-9.09,10.85,0,3.65,1.86,5.63,5.7,5.63,4.7,0,9.18-4.19,9.18-10.75h0ZM138.49,180.37c0,5.06-2.98,8.48-6.24,8.48-2.59,0-3.65-1.41-3.65-4.03,0-4.32,2.53-8.38,6.27-8.38,2.46,0,3.62,1.41,3.62,3.94h0Z"/><path class="cls-1" d="M153.27,174.67c-.8-.16-1.6-.26-2.72-.26-4,0-6.11,2.08-6.11,4.7,0,3.87,5.09,4.29,5.09,6.98,0,1.86-1.57,2.78-3.81,2.78-.96,0-1.82-.19-2.66-.45l-.42,2.24c.8.13,1.6.22,2.66.22,4.35,0,6.69-2.46,6.69-5.09,0-3.62-5.09-4.19-5.09-6.94,0-1.47,1.18-2.56,3.42-2.56.86,0,1.73.1,2.53.38l.42-2.02h0Z"/><path class="cls-2" d="M168.68,177.94c0-1.89-1.31-3.52-4.48-3.52-5.41,0-8.61,5.41-8.61,11.39,0,3.65,1.76,5.09,5.25,5.09,2.05,0,3.84-.35,5.28-.96v-1.98c-1.34.61-2.91.96-4.42.96-2.69,0-3.65-.7-3.65-3.42,0-.64.1-1.57.19-2.08,7.04-.29,10.43-2.21,10.43-5.47h0ZM166.25,178.23c0,2.02-2.27,3.07-7.65,3.3.77-2.91,2.62-5.25,5.31-5.25,1.41,0,2.34.67,2.34,1.95h0Z"/><path class="cls-1" d="M184.45,167.38c-.93-.19-1.76-.29-2.69-.29-3.97,0-6.3,2.11-7.1,6.53l-.19,1.09h-3.39l-.38,1.89h3.42l-2.88,14.98c-.77,3.94-2.14,5.25-4.58,5.25-.7,0-1.6-.1-2.4-.35l-.61,2.08c.86.19,1.82.29,2.75.29,3.81,0,6.21-2.08,7.2-7.33l2.85-14.91h4.58l.38-1.89h-4.61l.19-1.09c.58-3.23,1.98-4.58,4.48-4.58.7,0,1.6.1,2.37.32l.61-1.98h0Z"/><polygon class="cls-1" points="187.81 183.6 187.81 181.68 180.38 181.68 180.38 183.6 187.81 183.6 187.81 183.6"/><path class="cls-2" d="M206.62,190.61l-3.78-21.6h-2.59l-12,21.6h2.62l2.88-5.31h9.44l.83,5.31h2.59ZM202.87,183.35h-8.1l4.67-8.54c.58-1.06,1.09-2.11,1.54-3.1h.03c.1,1.02.22,2.14.38,3.14l1.47,8.51h0Z"/><path class="cls-1" d="M224.37,179.83c.64-3.39-.38-5.44-3.3-5.44-3.42,0-6.08,3.55-7.58,7.14l-.06-.03c1.22-3.74,1.7-5.7,1.89-6.78h-2.37l-3.01,15.9h2.34l.64-3.39c.74-4.03,4.19-10.78,7.46-10.78,1.57,0,2.08,1.22,1.57,3.94l-1.98,10.24h2.37l2.05-10.78h0Z"/><path class="cls-1" d="M242.44,179.83c.64-3.39-.38-5.44-3.3-5.44-3.42,0-6.08,3.55-7.58,7.14l-.06-.03c1.22-3.74,1.7-5.7,1.89-6.78h-2.37l-3.01,15.9h2.34l.64-3.39c.74-4.03,4.19-10.78,7.46-10.78,1.57,0,2.08,1.22,1.57,3.94l-1.98,10.24h2.37l2.05-10.78h0Z"/><path class="cls-2" d="M259.08,177.94c0-1.89-1.31-3.52-4.48-3.52-5.41,0-8.61,5.41-8.61,11.39,0,3.65,1.76,5.09,5.25,5.09,2.05,0,3.84-.35,5.28-.96v-1.98c-1.34.61-2.91.96-4.42.96-2.69,0-3.65-.7-3.65-3.42,0-.64.1-1.57.19-2.08,7.04-.29,10.43-2.21,10.43-5.47h0ZM256.64,178.23c0,2.02-2.27,3.07-7.65,3.3.77-2.91,2.62-5.25,5.31-5.25,1.41,0,2.34.67,2.34,1.95h0Z"/><path class="cls-2" d="M275.68,174.93c-1.41-.26-2.98-.45-4.74-.45-6.94,0-9.92,5.86-9.92,11.65,0,3.33,1.25,4.8,3.49,4.8,4.13,0,6.62-4.9,7.65-7.2l.06.03c-1.18,3.74-1.54,5.06-2.05,7.74-.77,3.9-2.82,5.22-6.21,5.22-1.47,0-3.01-.32-4.22-.86l-.54,2.4c1.12.35,2.43.58,4.16.58,6.02,0,8.32-2.98,8.99-6.56l3.33-17.34h0ZM272.99,176.69l-.26,1.38c-.77,4-4.19,10.82-7.49,10.82-1.09,0-1.79-.9-1.79-3.17,0-4.19,1.95-9.34,7.07-9.34.99,0,1.79.16,2.46.32h0Z"/><path class="cls-2" d="M292.79,174.93c-1.41-.26-2.98-.45-4.74-.45-6.94,0-9.92,5.86-9.92,11.65,0,3.33,1.25,4.8,3.49,4.8,4.13,0,6.62-4.9,7.71-7.36l.06.03c-1.02,3.26-1.7,5.57-1.98,7.01h2.4c.67-3.65,1.15-6.21,2.98-15.68h0ZM290.1,176.69l-.26,1.38c-.77,4-4.19,10.82-7.49,10.82-1.09,0-1.79-.9-1.79-3.17,0-4.19,1.95-9.34,7.07-9.34.99,0,1.79.16,2.46.32h0Z"/><path class="cls-1" d="M306.13,174.42c-3.17-.54-5.15,2.56-7.01,6.59h-.06c1.02-3.07,1.5-4.86,1.76-6.3h-2.34l-3.01,15.9h2.34l.7-3.65c.74-4.03,4-11.04,7.17-10.21l.45-2.34h0Z"/><path class="cls-1" d="M321.06,179.83c.64-3.39-.38-5.44-3.3-5.44-3.42,0-6.08,3.55-7.58,7.14l-.06-.03c1.22-3.74,1.7-5.7,1.89-6.78h-2.37l-3.01,15.9h2.34l.64-3.39c.74-4.03,4.19-10.78,7.46-10.78,1.57,0,2.08,1.22,1.57,3.94l-1.98,10.24h2.37l2.05-10.78h0Z"/><polygon class="cls-1" points="332.29 183.6 332.29 181.68 324.86 181.68 324.86 183.6 332.29 183.6 332.29 183.6"/><path class="cls-1" d="M347.19,169.01c-1.22-.26-2.11-.29-3.14-.29-4.99,0-7.74,2.98-7.74,6.43,0,5.18,6.69,5.22,6.69,9.18,0,2.59-2.02,4.42-5.57,4.42-1.06,0-2.37-.32-3.2-.67l-.48,2.37c1.02.35,2.37.45,3.42.45,4.93,0,8.38-2.98,8.38-6.94,0-5.09-6.78-5.18-6.78-9.38,0-1.82,1.57-3.84,4.96-3.84.77,0,1.92.13,3.01.48l.45-2.21h0Z"/><path class="cls-1" d="M361.23,174.99c-1.02-.32-2.11-.51-3.46-.51-5.7,0-9.06,5.15-9.06,11.2,0,2.91,1.34,5.15,5.44,5.15,1.66,0,3.2-.38,4.35-.83l.1-2.11c-1.06.51-2.5.86-3.84.86-2.98,0-3.49-1.86-3.49-3.62,0-3.87,2.02-8.74,6.3-8.74,1.22,0,2.21.26,3.1.67l.54-2.08h0Z"/><path class="cls-1" d="M376.62,179.83c.64-3.39-.38-5.44-3.3-5.44-3.42,0-6.08,3.55-7.58,7.14l-.06-.03c1.25-3.78,1.6-5.31,1.82-6.5l1.47-7.74h-2.34l-4.45,23.36h2.34l.64-3.39c.74-4.03,4.19-10.78,7.46-10.78,1.57,0,2.08,1.22,1.57,3.94l-1.98,10.24h2.37l2.05-10.78h0Z"/><path class="cls-1" d="M395.68,174.71h-2.37l-.64,3.39c-.74,4.03-4.19,10.78-7.42,10.78-1.6,0-2.08-1.22-1.57-3.94l1.95-10.24h-2.34l-2.08,10.78c-.64,3.39.42,5.44,3.3,5.44,3.42,0,6.08-3.55,7.58-7.14l.06.03c-1.22,3.74-1.66,5.7-1.89,6.78h2.37l3.04-15.9h0Z"/><polygon class="cls-1" points="405.09 167.25 402.75 167.25 398.3 190.61 400.64 190.61 405.09 167.25 405.09 167.25"/><path class="cls-2" d="M419.32,177.94c0-1.89-1.31-3.52-4.48-3.52-5.41,0-8.61,5.41-8.61,11.39,0,3.65,1.76,5.09,5.25,5.09,2.05,0,3.84-.35,5.28-.96v-1.98c-1.34.61-2.91.96-4.42.96-2.69,0-3.65-.7-3.65-3.42,0-.64.1-1.57.19-2.08,7.04-.29,10.43-2.21,10.43-5.47h0ZM416.89,178.23c0,2.02-2.27,3.07-7.65,3.3.77-2.91,2.62-5.25,5.31-5.25,1.41,0,2.34.67,2.34,1.95h0Z"/></g></svg>