<?xml version="1.0" encoding="UTF-8"?>
<svg id="Ebene_2" xmlns="http://www.w3.org/2000/svg" version="1.1" viewBox="0 0 419.3 228.6">
  <!-- Generator: Adobe Illustrator 29.3.1, SVG Export Plug-In . SVG Version: 2.1.0 Build 151)  -->
  <defs>
    <style>
      .st0 {
        fill: #fc0;
      }

      .st0, .st1 {
        fill-rule: evenodd;
      }

      .st2, .st1 {
        fill: #d40d2f;
      }
    </style>
  </defs>
  <g id="Ebene_1-2">
    <path class="st0" d="M0,50c0-7.7,6.1-13.6,13.6-13.6s13.6,6.1,13.6,13.6-6.1,13.6-13.6,13.6S0,57.6,0,50h0ZM3,187.6v-109.2c13-.6,27.5.2,38.8,1.4v13.3c-5.8.4-12.6,1.2-17.5,2v94.6c0,15.9,4,20.9,15.7,20.9s9-.8,12.9-2.2l1.4,18.7c-4.4,1-9.8,1.6-14.3,1.6-27.5,0-37-14.3-37-41h0Z"/>
    <path class="st1" d="M207.3,140.4v-13.2c-5.2-.4-11.9-1.2-16.7-2v-51.4c0-20.5-8.4-33.9-39-33.9s-24.7,2.2-34.5,5.4v28.3h13.5c.8-5.2,1.8-10.2,2.2-14.9,5-1.4,10.9-2.2,16.5-2.2,15.3,0,19.9,6.6,19.9,19.1v7c-35.9.2-58.8,12.8-58.8,35.8s10.8,25.5,27.9,25.5,28.3-8.8,33.1-20.7l.2.2c-.8,5.4-1,12.1-1,18.5,11.6.6,26.3-.2,36.8-1.4h0ZM169.1,98.8c0,14.3-9.8,28.3-24.5,28.3s-13.7-4.8-13.7-12.4,9-17.9,38.2-17.9v2h0Z"/>
    <path class="st2" d="M291.4,110.5c0-32.1-49.2-21.7-49.2-42s6-13,18.3-13,7.2.4,10.2,1c.4,4.8,1.2,9.8,2.4,14.5h13.3v-27.9c-8.2-1.8-17.1-3-24.4-3-27.1,0-41.4,13.5-41.4,30.9,0,34.1,49.2,22.7,49.2,42.8s-8.2,13.9-20.3,13.9-7.8-.4-11.1-1c-.4-4.8-1.2-10-2.2-14.7h-13.5v29.1c7.4,1.8,17.1,2.8,24.7,2.8,27.1,0,43.8-14.5,43.8-33.3h0Z"/>
    <path class="st1" d="M67.3,13.6c0-7.7,6.1-13.6,13.6-13.6s13.6,6.1,13.6,13.6-6.1,13.6-13.6,13.6-13.6-6.1-13.6-13.6h0ZM91.6,151.2V42c-13.1-.6-27.5.2-38.8,1.4v13.3c5.8.4,12.6,1.2,17.5,2v94.6c0,15.9-4,20.9-15.7,20.9s-9-.8-12.8-2.2l-1.4,18.7c4.4,1,9.8,1.6,14.3,1.6,27.5,0,37-14.3,37-41h0Z"/>
  </g>
</svg>